<svg id="Layer_1" data-name="Layer 1" xmlns="http://www.w3.org/2000/svg" viewBox="0 0 642.4 607.92"><defs><style>.cls-1,.cls-5{fill:#d7e2f3;}.cls-2,.cls-3,.cls-4{fill:#fff;}.cls-2,.cls-3,.cls-5{stroke:#fff;}.cls-2,.cls-5{stroke-miterlimit:10;}.cls-3{stroke-linecap:round;stroke-linejoin:round;stroke-width:11px;}</style></defs><title>ayoc</title><rect class="cls-1" width="642.4" height="607.92"/><path class="cls-1" d="M570,378.11l.39,37c0,3.22,5,3.22,5,0l-.39-37c0-3.21-5-3.22-5,0Z"/><circle class="cls-2" cx="301.14" cy="264.19" r="114.81"/><line class="cls-3" x1="210.1" y1="326.55" x2="307.46" y2="458.55"/><line class="cls-3" x1="393.36" y1="325.31" x2="306.86" y2="458.55"/><path class="cls-4" d="M321.56,372.5A308.3,308.3,0,0,1,313,422.15c-.82,3.17,3.71,4.3,4.82,1.33l17.49-46.74c1.06-2.84-3-4.07-4.57-1.93-8.93,12.49-15.08,26.52-21.11,40.56l4.57.6c-1.68-5.29,2.85-13,5.16-17.6a102.78,102.78,0,0,1,8.33-13.74l-4.32-2.52-9.18,19.1,4.57,1.93a61.32,61.32,0,0,1,10.51-23.76L325,376.85a32,32,0,0,1-6.44,9.7l4.18,2.43a41.16,41.16,0,0,1,6.72-15.61l-4.32-2.52c-6,9.79-10.19,20.48-14.26,31.19-1,2.63,3.33,4.47,4.57,1.93a396.47,396.47,0,0,1,23.87-42.22l-4.57-1.93L325.59,391c-.78,2.65,3.35,4.54,4.57,1.93l15.43-33.08L341,357.91l-1.63,4.69c-1.05,3,3.78,4.36,4.83,1.33l1.62-4.69c.91-2.64-3.37-4.5-4.57-1.92l-15.43,33.07,4.57,1.93,9.14-31.17c.81-2.79-3.06-4.25-4.57-1.92a397.39,397.39,0,0,0-23.88,42.21l4.57,1.93c3.92-10.32,7.95-20.57,13.76-30,1.71-2.78-2.5-5.13-4.32-2.52a44.59,44.59,0,0,0-7.22,16.8c-.48,2.34,2.34,4.33,4.18,2.43a36,36,0,0,0,7.22-10.7,2.5,2.5,0,0,0-4.32-2.53,65.07,65.07,0,0,0-11,25c-.55,2.61,3.27,4.62,4.56,1.92l9.19-19.1a2.5,2.5,0,0,0-4.32-2.52,102.67,102.67,0,0,0-10.48,18.33c-2.27,5.19-5.33,11.14-3.51,16.86.58,1.83,3.66,2.71,4.57.6,6-14,12.18-28.08,21.11-40.56l-4.57-1.93L313,422.15l4.82,1.33a316.78,316.78,0,0,0,8.72-51c.29-3.21-4.71-3.19-5,0Z"/><path class="cls-4" d="M297,373.52,292.67,387l29.38-12c-8.48-4.31-17.42-7.51-26.39-10.62-1.9-.66-3.8-1.32-5.69-2-1.08-.39-2.16-.8-3.23-1.21-1.86-.75-2.13-.85-.79-.29s1.08.45-.76-.37c-1-.48-2.07-1-3.08-1.5s-2-1.08-3-1.66q5,3.67,5.22,10.67L247,378.13a70.18,70.18,0,0,0,12.35,17,52.91,52.91,0,0,0,9.41,7.82c2.09,1.28-3-2,.07.16,4.15,2.86-2.48-2.23-1.05-2.15.17,0,4.35,11.53,4.25,11.32,1.55,3.25,3.45,6.32,5.26,9.42l11.07,18.92a20.14,20.14,0,0,0,17.27,9.91c6.4,0,14.55-3.67,17.27-9.91,6.89-15.8,13.82-31.68,22.8-46.43,2.28-3.74,4.68-7.4,7.24-10.94.22-.31,3.73-4.85,1.12-1.55,2.16-2.73,4.34-5.46,6.42-8.24,6.08-8.12,9.71-17.4,13.31-26.82,3.75-9.79-4.13-22.36-14-24.6-11.42-2.6-20.59,3.49-24.6,14-.27.71-3,7.54-1.28,3.49-.7,1.63-1.44,3.24-2.26,4.82-1.09,2.12-2.39,4.06-3.63,6.09-2.41,3.9,1.43-1.68-1.17,1.61a218.74,218.74,0,0,0-16.62,23.48c-8.55,14.33-15.24,29.66-21.9,44.93h34.54l-11.07-18.91c-1.68-2.87-3.28-5.76-4.89-8.66-1-1.88.79,2.79-.11-.83a40.19,40.19,0,0,0-3.05-8.14,32.46,32.46,0,0,0-6.66-9.07c-1.93-1.81-4.35-3.45-6.37-5-3.22-2.54,2.44,2.59-.8-.74-1.87-1.91-3.75-3.72-5.51-5.75,3,3.46-.13-.42-.57-1.14-.85-1.36-1.6-2.76-2.33-4.18-3.87-7.52-14.55-11.79-22.59-9.19-8.45,2.73-14.61,10.2-14.68,19.29-.13,18.15,16.62,25.7,31,31.4,4.81,1.91,9.73,3.53,14.62,5.24,2.44.86,4.87,1.76,7.29,2.68,1.8.68,1.68.78,0,0,1.55.74,3.11,1.45,4.65,2.23,11.83,6,25.24.84,29.38-11.95l4.35-13.46c3.23-10-3.75-22.28-14-24.6a20.44,20.44,0,0,0-24.6,14Z"/><circle class="cls-5" cx="302.04" cy="270.71" r="50.44"/></svg>